<svg width="17" height="16" viewBox="0 0 17 16" fill="none" xmlns="http://www.w3.org/2000/svg">
<g clip-path="url(#clip0_1_207)">
<path d="M16.3333 13.8334H2V0.833354C2 0.741687 1.925 0.666687 1.83333 0.666687H0.666667C0.575 0.666687 0.5 0.741687 0.5 0.833354V15.1667C0.5 15.2584 0.575 15.3334 0.666667 15.3334H16.3333C16.425 15.3334 16.5 15.2584 16.5 15.1667V14C16.5 13.9084 16.425 13.8334 16.3333 13.8334ZM3.5 12.5H14.6667C14.7583 12.5 14.8333 12.425 14.8333 12.3334V3.25002C14.8333 3.10002 14.6521 3.0271 14.5479 3.13127L10.1667 7.51252L7.55417 4.92919C7.52284 4.89817 7.48054 4.88077 7.43646 4.88077C7.39238 4.88077 7.35007 4.89817 7.31875 4.92919L3.38125 8.87919C3.36596 8.89451 3.35385 8.91271 3.34562 8.93273C3.3374 8.95275 3.33322 8.97421 3.33333 8.99585V12.3334C3.33333 12.425 3.40833 12.5 3.5 12.5Z" fill="#40BB15"/>
</g>
<defs>
<clipPath id="clip0_1_207">
<rect width="16" height="14.6667" fill="white" transform="translate(0.5 0.666687)"/>
</clipPath>
</defs>
</svg>
